<mxfile host="app.diagrams.net" modified="2023-10-04T01:13:26.002Z" agent="Mozilla/5.0 (Windows NT 10.0; Win64; x64) AppleWebKit/537.36 (KHTML, like Gecko) Chrome/117.0.0.0 Safari/537.36 Edg/117.0.2045.47" etag="-Kkh9DkZUPVrIFg4xLZ-" version="21.8.2" type="github">
  <diagram name="Page-1" id="dd472eb7-4b8b-5cd9-a60b-b15522922e76">
    <mxGraphModel dx="1092" dy="640" grid="1" gridSize="10" guides="1" tooltips="1" connect="1" arrows="1" fold="1" page="1" pageScale="1" pageWidth="1100" pageHeight="850" background="none" math="0" shadow="0">
      <root>
        <mxCell id="0" />
        <mxCell id="1" parent="0" />
        <mxCell id="374e34682ed331ee-1" value="SafeRTOS" style="ellipse;whiteSpace=wrap;html=1;rounded=0;shadow=0;dashed=0;comic=0;fontFamily=Verdana;fontSize=22;fontColor=#0069D1;fillColor=#f5f5f5;strokeColor=#666666;" parent="1" vertex="1">
          <mxGeometry x="460" y="242.5" width="170" height="157.5" as="geometry" />
        </mxCell>
        <mxCell id="45236fa5f4b8e91a-6" value="&lt;font style=&quot;font-size: 18px;&quot;&gt;Channel Compare &lt;br&gt;Task&lt;/font&gt;" style="ellipse;whiteSpace=wrap;html=1;rounded=0;shadow=0;dashed=0;comic=0;fontFamily=Verdana;fontSize=22;fontColor=#0069D1;fillColor=#f5f5f5;strokeColor=#666666;" parent="1" vertex="1">
          <mxGeometry x="310" y="110" width="130" height="110" as="geometry" />
        </mxCell>
        <mxCell id="DyRFvoeUUXTJoBCo-EYL-1" value="&lt;font style=&quot;font-size: 18px;&quot;&gt;Stage Compare &lt;br&gt;Task&lt;/font&gt;" style="ellipse;whiteSpace=wrap;html=1;rounded=0;shadow=0;dashed=0;comic=0;fontFamily=Verdana;fontSize=22;fontColor=#0069D1;fillColor=#f5f5f5;strokeColor=#666666;" parent="1" vertex="1">
          <mxGeometry x="690" y="160" width="130" height="110" as="geometry" />
        </mxCell>
        <mxCell id="DyRFvoeUUXTJoBCo-EYL-2" value="&lt;font style=&quot;font-size: 18px;&quot;&gt;IOComm&lt;br&gt;Task&lt;/font&gt;" style="ellipse;whiteSpace=wrap;html=1;rounded=0;shadow=0;dashed=0;comic=0;fontFamily=Verdana;fontSize=22;fontColor=#0069D1;fillColor=#f5f5f5;strokeColor=#666666;" parent="1" vertex="1">
          <mxGeometry x="630" y="400" width="130" height="110" as="geometry" />
        </mxCell>
        <mxCell id="DyRFvoeUUXTJoBCo-EYL-6" value="&lt;font style=&quot;font-size: 18px;&quot;&gt;Field UDP&lt;br&gt;Task&lt;/font&gt;" style="ellipse;whiteSpace=wrap;html=1;rounded=0;shadow=0;dashed=0;comic=0;fontFamily=Verdana;fontSize=22;fontColor=#0069D1;fillColor=#f5f5f5;strokeColor=#666666;" parent="1" vertex="1">
          <mxGeometry x="280" y="360" width="130" height="110" as="geometry" />
        </mxCell>
        <mxCell id="7YWWSOIYfI9C4DpH2xJT-1" value="&lt;font style=&quot;font-size: 18px;&quot;&gt;Channel Compare &lt;br&gt;Task&lt;/font&gt;" style="ellipse;whiteSpace=wrap;html=1;rounded=0;shadow=0;dashed=0;comic=0;fontFamily=Verdana;fontSize=22;fontColor=#0069D1;fillColor=#f5f5f5;strokeColor=#666666;" vertex="1" parent="1">
          <mxGeometry x="485" y="70" width="130" height="110" as="geometry" />
        </mxCell>
      </root>
    </mxGraphModel>
  </diagram>
</mxfile>
